<svg xmlns="http://www.w3.org/2000/svg" width="32" height="32" viewBox="0 0 32 32" fill="none">
  <rect width="32" height="32" rx="16" fill="#2563EB"/>
  <path d="M22 11.5C22 10.672 21.328 10 20.5 10H11.5C10.672 10 10 10.672 10 11.5V20.5C10 21.328 10.672 22 11.5 22H20.5C21.328 22 22 21.328 22 20.5V11.5ZM11.5 11H20.5C20.776 11 21 11.224 21 11.5V17.5L18.5 15L16 17.5L13.5 15L11 17.5V11.5C11 11.224 11.224 11 11.5 11ZM11.5 21C11.224 21 11 20.776 11 20.5V19L13.5 16.5L16 19L18.5 16.5L21 19V20.5C21 20.776 20.776 21 20.5 21H11.5Z" fill="white"/>
</svg>
